<svg width="246" height="133" viewBox="0 0 246 133" fill="none" xmlns="http://www.w3.org/2000/svg">
<g clip-path="url(#clip0)">
<path d="M123.789 133C190.494 133 244.569 129.441 244.569 125.05C244.569 120.659 190.494 117.1 123.789 117.1C57.0845 117.1 3.00946 120.659 3.00946 125.05C3.00946 129.441 57.0845 133 123.789 133Z" fill="#F2F2F2"/>
<path d="M119.16 38.0197C99.4819 38.0197 85.353 50.5722 85.353 79.8613C85.353 113.056 99.4818 121.842 119.16 121.842C138.839 121.842 153.809 112.219 153.809 79.8613C153.809 45.2722 138.839 38.0197 119.16 38.0197ZM119.29 110.824C105.66 110.824 98.5392 102.874 98.5392 79.8827C98.5392 59.5964 105.951 48.8985 119.581 48.8985C133.211 48.8985 140.623 55.9256 140.623 79.8827C140.623 102.294 132.919 110.824 119.29 110.824Z" fill="#2F2E41"/>
<path d="M73.5696 98.6899H65.4334V74.8688C65.4334 73.6036 64.9279 72.3902 64.028 71.4955C63.1282 70.6009 61.9078 70.0982 60.6352 70.0982H58.7287C58.0986 70.0982 57.4747 70.2216 56.8926 70.4614C56.3104 70.7011 55.7815 71.0525 55.3359 71.4955C54.8904 71.9385 54.5369 72.4644 54.2958 73.0432C54.0547 73.622 53.9305 74.2423 53.9305 74.8688V98.6899H30.9812C30.5091 98.6899 30.045 98.5686 29.6339 98.3378C29.2229 98.1069 28.8788 97.7743 28.6351 97.3722C28.3914 96.9702 28.2564 96.5124 28.2431 96.0432C28.2298 95.5739 28.3387 95.1093 28.5593 94.6942L52.8486 48.9867C53.1514 48.4168 53.335 47.7918 53.3882 47.1495C53.4414 46.5072 53.3631 45.8608 53.1581 45.2494C52.9531 44.6379 52.6256 44.0741 52.1954 43.592C51.7652 43.1099 51.2412 42.7195 50.655 42.4443L49.2212 41.7711C48.1078 41.2483 46.8349 41.1711 45.6659 41.5555C44.4969 41.9398 43.5212 42.7562 42.9408 43.8358L13.3167 98.9345C12.8123 99.8727 12.5483 100.92 12.5483 101.984V101.984C12.5483 102.834 12.7166 103.675 13.0436 104.46C13.3706 105.244 13.8498 105.958 14.454 106.558C15.0581 107.159 15.7754 107.635 16.5648 107.961C17.3542 108.286 18.2002 108.453 19.0546 108.453H53.9305V123.516C53.9305 124.267 54.0793 125.01 54.3684 125.704C54.6574 126.398 55.081 127.028 55.6151 127.559C56.1492 128.09 56.7832 128.512 57.481 128.799C58.1788 129.086 58.9267 129.234 59.682 129.234H59.682C60.4373 129.234 61.1852 129.086 61.8829 128.799C62.5807 128.512 63.2148 128.09 63.7488 127.559C64.2829 127.028 64.7066 126.398 64.9956 125.704C65.2846 125.01 65.4334 124.267 65.4334 123.516V108.453H73.5696C74.8717 108.453 76.1205 107.939 77.0413 107.023C77.962 106.108 78.4793 104.866 78.4793 103.571V103.571C78.4793 102.277 77.962 101.035 77.0413 100.12C76.1205 99.2043 74.8717 98.6899 73.5696 98.6899V98.6899Z" fill="#165A82"/>
<path d="M224.229 98.6899H216.093V74.8688C216.093 73.6036 215.587 72.3902 214.687 71.4955C213.788 70.6009 212.567 70.0982 211.295 70.0982H209.388C208.758 70.0982 208.134 70.2216 207.552 70.4614C206.97 70.7011 206.441 71.0525 205.995 71.4955C205.55 71.9385 205.196 72.4644 204.955 73.0432C204.714 73.622 204.59 74.2423 204.59 74.8688V98.6899H181.641C181.168 98.6899 180.704 98.5686 180.293 98.3378C179.882 98.1069 179.538 97.7743 179.294 97.3722C179.051 96.9702 178.916 96.5124 178.902 96.0432C178.889 95.5739 178.998 95.1093 179.219 94.6942L203.508 48.9867C203.811 48.4168 203.994 47.7918 204.048 47.1495C204.101 46.5072 204.022 45.8608 203.817 45.2494C203.612 44.6379 203.285 44.0741 202.855 43.592C202.425 43.1099 201.901 42.7195 201.314 42.4443L199.881 41.7711C198.767 41.2483 197.494 41.1711 196.325 41.5555C195.156 41.9398 194.181 42.7562 193.6 43.8358L163.976 98.9345C163.472 99.8727 163.208 100.92 163.208 101.984V101.984C163.208 103.7 163.893 105.345 165.113 106.558C166.334 107.771 167.988 108.453 169.714 108.453H204.59V123.516C204.59 125.033 205.196 126.487 206.274 127.559C207.353 128.632 208.816 129.234 210.341 129.234V129.234C211.867 129.234 213.33 128.632 214.408 127.559C215.487 126.487 216.093 125.033 216.093 123.516V108.453H224.229C225.531 108.453 226.78 107.939 227.701 107.023C228.621 106.108 229.139 104.866 229.139 103.571V103.571C229.139 102.277 228.621 101.035 227.701 100.12C226.78 99.2043 225.531 98.69 224.229 98.6899Z" fill="#165A82"/>
<path d="M75.814 95.9005H67.6778V72.0794C67.6778 71.4529 67.5537 70.8325 67.3126 70.2538C67.0715 69.675 66.718 69.1491 66.2725 68.7061C65.8269 68.2631 65.298 67.9117 64.7158 67.6719C64.1337 67.4322 63.5098 67.3088 62.8797 67.3088H60.9732C59.7006 67.3088 58.4802 67.8114 57.5804 68.7061C56.6805 69.6007 56.175 70.8141 56.175 72.0794V95.9005H33.2256C32.7535 95.9005 32.2894 95.7792 31.8784 95.5483C31.4673 95.3174 31.1232 94.9848 30.8795 94.5828C30.6359 94.1808 30.5008 93.7229 30.4875 93.2537C30.4742 92.7845 30.5832 92.3198 30.8037 91.9048L55.0931 46.1972C55.3959 45.6274 55.5794 45.0024 55.6326 44.3601C55.6858 43.7177 55.6075 43.0713 55.4025 42.4599C55.1975 41.8485 54.87 41.2847 54.4398 40.8026C54.0096 40.3205 53.4856 39.93 52.8995 39.6548L51.4656 38.9816C50.3522 38.4589 49.0794 38.3817 47.9104 38.766C46.7413 39.1504 45.7657 39.9668 45.1852 41.0464L15.5612 96.1451C15.0567 97.0833 14.7928 98.1308 14.7928 99.1947V99.1947C14.7928 100.91 15.4783 102.556 16.6984 103.769C17.9186 104.982 19.5735 105.664 21.2991 105.664H56.175V120.726C56.175 121.477 56.3238 122.221 56.6128 122.915C56.9018 123.609 57.3255 124.239 57.8595 124.77C58.3936 125.301 59.0276 125.722 59.7254 126.01C60.4232 126.297 61.1711 126.445 61.9264 126.445H61.9264C63.4518 126.445 64.9147 125.842 65.9933 124.77C67.0719 123.698 67.6778 122.243 67.6778 120.726V105.664H75.814C76.4588 105.664 77.0972 105.537 77.6929 105.292C78.2886 105.047 78.8298 104.687 79.2857 104.234C79.7416 103.78 80.1033 103.242 80.35 102.65C80.5968 102.058 80.7238 101.423 80.7238 100.782V100.782C80.7238 100.141 80.5968 99.5062 80.35 98.9139C80.1033 98.3217 79.7416 97.7836 79.2857 97.3303C78.8298 96.877 78.2886 96.5174 77.6929 96.2721C77.0972 96.0268 76.4588 95.9005 75.814 95.9005V95.9005Z" stroke="#3F3D56" stroke-miterlimit="10"/>
<path d="M228.437 95.9005H220.301V72.0794C220.301 70.8141 219.796 69.6007 218.896 68.7061C217.996 67.8114 216.775 67.3088 215.503 67.3088H213.596C212.966 67.3088 212.342 67.4322 211.76 67.6719C211.178 67.9117 210.649 68.2631 210.204 68.7061C209.758 69.1491 209.405 69.675 209.163 70.2538C208.922 70.8325 208.798 71.4529 208.798 72.0794V95.9005H185.849C185.377 95.9005 184.913 95.7792 184.502 95.5483C184.091 95.3174 183.746 94.9848 183.503 94.5828C183.259 94.1808 183.124 93.7229 183.111 93.2537C183.097 92.7845 183.206 92.3198 183.427 91.9048L207.716 46.1972C208.019 45.6274 208.203 45.0024 208.256 44.3601C208.309 43.7177 208.231 43.0713 208.026 42.4599C207.821 41.8485 207.493 41.2847 207.063 40.8026C206.633 40.3205 206.109 39.93 205.523 39.6548L204.089 38.9816C202.975 38.4589 201.703 38.3817 200.534 38.766C199.365 39.1504 198.389 39.9668 197.808 41.0464L168.184 96.1451C167.68 97.0833 167.416 98.1308 167.416 99.1947C167.416 100.91 168.101 102.556 169.322 103.769C170.542 104.982 172.197 105.664 173.922 105.664H208.798V120.726C208.798 122.243 209.404 123.698 210.483 124.77C211.561 125.842 213.024 126.445 214.55 126.445V126.445C216.075 126.445 217.538 125.842 218.616 124.77C219.695 123.698 220.301 122.243 220.301 120.726V105.664H228.437C229.082 105.664 229.72 105.537 230.316 105.292C230.912 105.047 231.453 104.687 231.909 104.234C232.365 103.78 232.726 103.242 232.973 102.65C233.22 102.058 233.347 101.423 233.347 100.782V100.782C233.347 99.4874 232.83 98.2457 231.909 97.3303C230.988 96.4148 229.739 95.9005 228.437 95.9005V95.9005Z" stroke="#3F3D56" stroke-miterlimit="10"/>
<path d="M123.649 35.5092C103.971 35.5092 89.8419 48.0617 89.8419 77.3508C89.8419 110.545 103.971 119.332 123.649 119.332C143.327 119.332 158.298 109.708 158.298 77.3508C158.298 42.7618 143.327 35.5092 123.649 35.5092ZM123.778 108.314C110.149 108.314 103.028 100.363 103.028 77.3722C103.028 57.0859 110.44 46.388 124.07 46.388C137.7 46.388 145.112 53.4151 145.112 77.3722C145.112 99.7837 137.408 108.314 123.778 108.314V108.314Z" stroke="#3F3D56" stroke-miterlimit="10"/>
<path d="M131.94 41.9305C131.762 42.6575 130.995 43.2397 130.145 43.6465C128.359 44.5018 126.156 44.757 124.018 44.8426C123.473 44.8756 122.926 44.8655 122.383 44.8126C121.329 44.7113 120.341 44.2596 119.578 43.5306C119.523 43.4953 119.478 43.4468 119.448 43.3897C119.417 43.3326 119.402 43.2688 119.403 43.2041C119.404 43.1395 119.421 43.0761 119.454 43.02C119.486 42.9639 119.532 42.9168 119.588 42.8832C120.725 41.6405 122.624 40.8785 124.537 40.3298C125.987 39.9138 128.517 38.8363 130.099 38.9817C131.631 39.1225 132.165 41.0126 131.94 41.9305Z" fill="#3F3D56"/>
<path d="M230.538 95.5104C231.232 95.7611 231.975 95.8482 232.708 95.7648C233.441 95.6814 234.145 95.4299 234.764 95.03C235.382 94.6301 235.899 94.0927 236.273 93.4603C236.648 92.8279 236.869 92.1177 236.92 91.3857C236.971 90.6537 236.851 89.9199 236.568 89.2421C236.285 88.5643 235.848 87.9611 235.291 87.48C234.734 86.9989 234.072 86.6531 233.357 86.4698C232.642 86.2864 231.895 86.2707 231.173 86.4237L231.292 88.8623L230.132 86.7724C228.993 87.3044 228.113 88.2643 227.685 89.441C227.534 89.8532 227.441 90.2847 227.411 90.7226C227.338 91.7502 227.604 92.7734 228.168 93.6374C228.732 94.5013 229.564 95.1589 230.538 95.5104V95.5104Z" fill="#57B894"/>
<path d="M236.28 123.794C235.87 121.72 237.646 119.882 239.399 118.687C241.152 117.492 243.201 116.317 243.799 114.289C244.659 111.374 242.098 108.705 240.105 106.403C238.626 104.695 237.356 102.818 236.321 100.813C235.907 100.008 235.525 99.1677 235.416 98.2705C235.259 96.9785 235.677 95.6928 236.097 94.4604C237.498 90.3549 238.996 86.2837 240.591 82.247" stroke="#3F3D56" stroke-miterlimit="10"/>
<path d="M230.734 94.8825C231.428 95.1332 232.171 95.2203 232.904 95.1369C233.637 95.0536 234.341 94.802 234.96 94.4021C235.579 94.0022 236.095 93.4649 236.47 92.8325C236.844 92.2001 237.065 91.4899 237.117 90.7578C237.168 90.0258 237.047 89.292 236.764 88.6143C236.482 87.9365 236.044 87.3333 235.487 86.8522C234.93 86.3711 234.268 86.0252 233.553 85.8419C232.839 85.6586 232.091 85.6428 231.369 85.7958L231.488 88.2344L230.328 86.1445C229.189 86.6766 228.309 87.6364 227.882 88.8132C227.73 89.2253 227.638 89.6569 227.608 90.0948C227.534 91.1223 227.8 92.1456 228.364 93.0095C228.928 93.8735 229.761 94.531 230.734 94.8825V94.8825Z" stroke="#3F3D56" stroke-miterlimit="10"/>
<path d="M235.698 81.4048C235.97 80.6581 236.427 79.9915 237.026 79.4664C237.626 78.9414 238.348 78.5748 239.128 78.4004L239.52 80.7187L240.247 78.2838C241.257 78.2987 242.237 78.6324 243.043 79.2366C243.85 79.8408 244.443 80.6843 244.736 81.6454C245.03 82.6064 245.008 83.6353 244.675 84.5834C244.342 85.5315 243.714 86.3498 242.883 86.9201C242.051 87.4904 241.059 87.7833 240.049 87.7564C239.04 87.7296 238.064 87.3843 237.265 86.7706C236.465 86.1568 235.883 85.3063 235.601 84.3419C235.319 83.3774 235.353 82.3489 235.698 81.4048H235.698Z" fill="#57B894"/>
<path d="M235.959 80.5677C236.232 79.821 236.689 79.1544 237.288 78.6293C237.887 78.1043 238.61 77.7377 239.389 77.5633L239.782 79.8816L240.509 77.4467C241.519 77.4616 242.498 77.7953 243.305 78.3995C244.112 79.0037 244.705 79.8472 244.998 80.8083C245.291 81.7693 245.27 82.7981 244.937 83.7462C244.603 84.6943 243.976 85.5126 243.144 86.083C242.313 86.6533 241.321 86.9462 240.311 86.9193C239.301 86.8924 238.326 86.5472 237.527 85.9335C236.727 85.3197 236.144 84.4692 235.863 83.5048C235.581 82.5403 235.615 81.5118 235.959 80.5677H235.959Z" stroke="#3F3D56" stroke-miterlimit="10"/>
<path d="M239.268 106.45C240.368 106.847 241.576 106.827 242.663 106.395C243.749 105.963 244.638 105.148 245.159 104.107C245.68 103.065 245.798 101.869 245.489 100.747C245.18 99.6248 244.467 98.6548 243.485 98.0218L242.927 99.8929L242.53 97.5472C242.526 97.5454 242.522 97.5439 242.518 97.5426C241.93 97.3301 241.305 97.2348 240.68 97.2623C240.054 97.2899 239.44 97.4397 238.873 97.7031C238.306 97.9666 237.797 98.3386 237.374 98.7979C236.952 99.2571 236.624 99.7947 236.411 100.38C236.197 100.965 236.102 101.586 236.13 102.208C236.158 102.83 236.309 103.44 236.575 104.003C236.84 104.567 237.214 105.073 237.676 105.493C238.139 105.913 238.679 106.238 239.268 106.45H239.268Z" fill="#57B894"/>
<path d="M239.495 105.602C240.595 105.999 241.803 105.979 242.89 105.547C243.976 105.115 244.864 104.3 245.386 103.259C245.907 102.217 246.024 101.021 245.716 99.8991C245.407 98.7769 244.694 97.8069 243.712 97.1739L243.153 99.045L242.757 96.6993C242.753 96.6975 242.749 96.6959 242.745 96.6947C242.156 96.4821 241.532 96.3869 240.906 96.4144C240.281 96.442 239.667 96.5917 239.1 96.8552C238.533 97.1187 238.023 97.4907 237.601 97.9499C237.178 98.4092 236.851 98.9467 236.638 99.5318C236.424 100.117 236.329 100.738 236.357 101.36C236.385 101.982 236.536 102.592 236.801 103.156C237.067 103.719 237.441 104.225 237.903 104.645C238.365 105.065 238.906 105.39 239.495 105.602H239.495Z" stroke="#3F3D56" stroke-miterlimit="10"/>
<path d="M234.307 114.318C234.496 115.388 235.05 116.361 235.875 117.073C236.699 117.786 237.746 118.195 238.838 118.231C239.93 118.268 241.001 117.93 241.873 117.274C242.744 116.619 243.362 115.685 243.623 114.63C243.884 113.575 243.772 112.463 243.307 111.48C242.841 110.497 242.049 109.704 241.065 109.232C240.081 108.761 238.963 108.64 237.9 108.891C236.837 109.141 235.892 109.748 235.225 110.608L237.349 113.785L234.448 112.099C234.223 112.817 234.174 113.578 234.307 114.318V114.318Z" fill="#57B894"/>
<path d="M234.503 113.69C234.693 114.76 235.246 115.733 236.071 116.446C236.896 117.158 237.942 117.567 239.034 117.603C240.126 117.64 241.198 117.302 242.069 116.646C242.94 115.991 243.558 115.057 243.819 114.002C244.08 112.947 243.969 111.835 243.503 110.852C243.037 109.87 242.246 109.076 241.261 108.604C240.277 108.133 239.159 108.012 238.096 108.263C237.033 108.513 236.089 109.12 235.422 109.98L237.545 113.157L234.644 111.471C234.419 112.189 234.371 112.95 234.503 113.69V113.69Z" stroke="#3F3D56" stroke-miterlimit="10"/>
<path d="M2.06242 107.052C2.51813 107.217 3.0061 107.274 3.48785 107.219C3.9696 107.164 4.43198 106.999 4.83853 106.736C5.24508 106.474 5.58469 106.121 5.8306 105.705C6.07651 105.29 6.22199 104.823 6.25558 104.342C6.28917 103.861 6.20995 103.379 6.02416 102.934C5.83837 102.488 5.55109 102.092 5.18496 101.776C4.81884 101.46 4.38387 101.233 3.91436 101.112C3.44484 100.992 2.95361 100.981 2.47937 101.082L2.55774 102.684L1.79531 101.311C1.04703 101.661 0.468951 102.291 0.18811 103.064C0.0883718 103.335 0.0277383 103.619 0.00801849 103.906C-0.0401064 104.581 0.134414 105.254 0.505133 105.821C0.875851 106.389 1.42256 106.821 2.06242 107.052V107.052Z" fill="#57B894"/>
<path d="M5.83494 125.635C5.5658 124.272 6.73203 123.064 7.884 122.279C9.03596 121.494 10.382 120.723 10.775 119.39C11.3399 117.475 9.65729 115.721 8.34765 114.209C7.37603 113.086 6.54164 111.853 5.86193 110.536C5.56642 110.018 5.36515 109.453 5.26737 108.865C5.16411 108.017 5.43841 107.172 5.71475 106.362C6.63534 103.665 7.61961 100.99 8.66756 98.3377" stroke="#3F3D56" stroke-miterlimit="10"/>
<path d="M2.19139 106.639C2.6471 106.804 3.13507 106.861 3.61682 106.807C4.09857 106.752 4.56094 106.587 4.96749 106.324C5.37404 106.061 5.71365 105.708 5.95956 105.293C6.20547 104.877 6.35095 104.41 6.38454 103.93C6.41813 103.449 6.33891 102.966 6.15312 102.521C5.96733 102.076 5.68005 101.68 5.31393 101.363C4.9478 101.047 4.51284 100.82 4.04332 100.7C3.57381 100.579 3.08258 100.569 2.60834 100.669L2.68671 102.272L1.92428 100.898C1.176 101.248 0.597918 101.879 0.317078 102.652C0.21734 102.923 0.156708 103.206 0.136987 103.494C0.0888586 104.169 0.263378 104.841 0.634097 105.409C1.00482 105.977 1.55153 106.409 2.19139 106.639V106.639Z" stroke="#3F3D56" stroke-miterlimit="10"/>
<path d="M5.45227 97.7844C5.63111 97.2938 5.93127 96.8558 6.32509 96.5108C6.71891 96.1659 7.19373 95.925 7.70578 95.8104L7.96357 97.3336L8.4415 95.7339C9.10509 95.7436 9.74838 95.9629 10.2785 96.3598C10.8086 96.7568 11.1981 97.311 11.3908 97.9424C11.5835 98.5739 11.5693 99.2498 11.3504 99.8727C11.1315 100.496 10.7192 101.033 10.1729 101.408C9.62664 101.783 8.97473 101.975 8.31131 101.957C7.64789 101.94 7.00727 101.713 6.48196 101.31C5.95664 100.907 5.57381 100.348 5.38873 99.7141C5.20365 99.0804 5.2259 98.4047 5.45227 97.7844V97.7844Z" fill="#57B894"/>
<path d="M5.6242 97.2344C5.80304 96.7438 6.1032 96.3058 6.49702 95.9608C6.89085 95.6159 7.36566 95.375 7.87771 95.2604L8.1355 96.7836L8.61344 95.1839C9.27703 95.1937 9.92032 95.4129 10.4504 95.8098C10.9806 96.2068 11.3701 96.761 11.5627 97.3924C11.7554 98.0239 11.7413 98.6998 11.5224 99.3227C11.3034 99.9457 10.8911 100.483 10.3448 100.858C9.79857 101.233 9.14667 101.425 8.48324 101.407C7.81982 101.39 7.17921 101.163 6.65389 100.76C6.12858 100.357 5.74574 99.7977 5.56066 99.1641C5.37558 98.5304 5.39783 97.8547 5.6242 97.2344V97.2344Z" stroke="#3F3D56" stroke-miterlimit="10"/>
<path d="M7.79799 114.24C8.5207 114.5 9.31461 114.487 10.0284 114.203C10.7422 113.919 11.3259 113.384 11.6684 112.7C12.0108 112.016 12.088 111.23 11.8852 110.493C11.6824 109.755 11.2139 109.118 10.5689 108.702L10.2016 109.931L9.94121 108.39C9.93864 108.389 9.93597 108.388 9.93324 108.387C9.54667 108.247 9.13619 108.185 8.72525 108.203C8.31431 108.221 7.91098 108.319 7.5383 108.492C7.16562 108.665 6.8309 108.91 6.55327 109.212C6.27564 109.513 6.06054 109.867 5.92027 110.251C5.77999 110.636 5.7173 111.044 5.73576 111.452C5.75422 111.861 5.85348 112.262 6.02786 112.632C6.20224 113.003 6.44833 113.335 6.75206 113.611C7.05579 113.887 7.4112 114.1 7.79799 114.24V114.24Z" fill="#57B894"/>
<path d="M7.94695 113.682C8.66967 113.943 9.46358 113.93 10.1774 113.646C10.8911 113.362 11.4749 112.827 11.8173 112.143C12.1598 111.458 12.237 110.673 12.0342 109.935C11.8314 109.198 11.3629 108.561 10.7178 108.145L10.3506 109.374L10.0902 107.833C10.0876 107.832 10.0849 107.831 10.0822 107.83C9.69572 107.691 9.2854 107.628 8.87467 107.647C8.46395 107.665 8.06087 107.763 7.68844 107.937C6.93629 108.286 6.35467 108.919 6.07151 109.695C5.78836 110.471 5.82688 111.327 6.17859 112.075C6.53031 112.823 7.16641 113.401 7.94695 113.682V113.682Z" stroke="#3F3D56" stroke-miterlimit="10"/>
<path d="M4.53858 119.409C4.66284 120.112 5.02645 120.751 5.56842 121.219C6.1104 121.687 6.79777 121.956 7.51528 121.98C8.23278 122.004 8.93677 121.782 9.50919 121.351C10.0816 120.92 10.4876 120.307 10.6592 119.614C10.8307 118.921 10.7574 118.19 10.4514 117.544C10.1454 116.899 9.62544 116.377 8.97867 116.068C8.33189 115.758 7.59765 115.679 6.89908 115.843C6.20052 116.008 5.58011 116.406 5.1419 116.971L6.53684 119.059L4.63083 117.951C4.48305 118.423 4.45141 118.923 4.53858 119.409V119.409Z" fill="#57B894"/>
<path d="M4.66754 118.997C4.79181 119.7 5.15542 120.339 5.69739 120.807C6.23936 121.275 6.92674 121.543 7.64425 121.567C8.36175 121.592 9.06574 121.37 9.63816 120.939C10.2106 120.508 10.6166 119.895 10.7882 119.201C10.9597 118.508 10.8863 117.778 10.5804 117.132C10.2744 116.486 9.75441 115.965 9.10763 115.655C8.46085 115.345 7.72661 115.266 7.02805 115.431C6.32948 115.595 5.70907 115.994 5.27087 116.559L6.66581 118.646L4.7598 117.538C4.61202 118.01 4.58038 118.51 4.66754 118.997V118.997Z" stroke="#3F3D56" stroke-miterlimit="10"/>
<path d="M110.121 77.6548C112.27 77.6548 114.013 75.4125 114.013 72.6465C114.013 69.8805 112.27 67.6383 110.121 67.6383C107.971 67.6383 106.228 69.8805 106.228 72.6465C106.228 75.4125 107.971 77.6548 110.121 77.6548Z" fill="#2F2E41"/>
<path d="M131.3 77.7687C133.45 77.7687 135.192 75.5264 135.192 72.7604C135.192 69.9944 133.45 67.7521 131.3 67.7521C129.15 67.7521 127.408 69.9944 127.408 72.7604C127.408 75.5264 129.15 77.7687 131.3 77.7687Z" fill="#2F2E41"/>
<path d="M128.323 87.5576C128.323 89.8204 125.145 91.6553 121.225 91.6553C117.306 91.6553 114.128 89.8204 114.128 87.5576C114.128 85.5975 116.511 83.9585 119.696 83.5578C120.203 83.4913 120.714 83.4586 121.225 83.4599C122.082 83.4572 122.937 83.5488 123.774 83.7331C126.434 84.3227 128.323 85.8138 128.323 87.5576Z" fill="#2F2E41"/>
<path d="M111.036 76.5166C113.186 76.5166 114.929 74.2743 114.929 71.5083C114.929 68.7423 113.186 66.5 111.036 66.5C108.887 66.5 107.144 68.7423 107.144 71.5083C107.144 74.2743 108.887 76.5166 111.036 76.5166Z" stroke="#3F3D56" stroke-miterlimit="10"/>
<path d="M132.216 76.6304C134.366 76.6304 136.108 74.3881 136.108 71.6221C136.108 68.8561 134.366 66.6138 132.216 66.6138C130.066 66.6138 128.323 68.8561 128.323 71.6221C128.323 74.3881 130.066 76.6304 132.216 76.6304Z" stroke="#3F3D56" stroke-miterlimit="10"/>
<path d="M122.141 90.517C126.061 90.517 129.239 88.6824 129.239 86.4193C129.239 84.1562 126.061 82.3216 122.141 82.3216C118.221 82.3216 115.043 84.1562 115.043 86.4193C115.043 88.6824 118.221 90.517 122.141 90.517Z" stroke="#3F3D56" stroke-miterlimit="10"/>
<path d="M123.859 84.0746C123.86 84.3608 123.752 84.637 123.556 84.8467C123.464 84.9472 123.351 85.0275 123.226 85.0827C123.101 85.1379 122.965 85.1667 122.828 85.1673H120.539C120.257 85.1575 119.99 85.0371 119.797 84.8323C119.604 84.6276 119.5 84.3551 119.508 84.0746C119.507 83.8526 119.572 83.6354 119.696 83.4505C120.203 83.3796 120.714 83.3447 121.226 83.3461C122.084 83.3433 122.939 83.4411 123.774 83.6375C123.83 83.7763 123.859 83.9248 123.859 84.0746V84.0746Z" fill="white"/>
<path d="M111.036 71.2806C111.669 71.2806 112.181 70.771 112.181 70.1424C112.181 69.5138 111.669 69.0041 111.036 69.0041C110.404 69.0041 109.892 69.5138 109.892 70.1424C109.892 70.771 110.404 71.2806 111.036 71.2806Z" fill="white"/>
<path d="M132.33 71.2806C132.963 71.2806 133.475 70.771 133.475 70.1424C133.475 69.5138 132.963 69.0041 132.33 69.0041C131.698 69.0041 131.186 69.5138 131.186 70.1424C131.186 70.771 131.698 71.2806 132.33 71.2806Z" fill="white"/>
<path opacity="0.3" d="M133.475 81.9802C134.107 81.9802 134.62 81.4706 134.62 80.8419C134.62 80.2133 134.107 79.7037 133.475 79.7037C132.843 79.7037 132.33 80.2133 132.33 80.8419C132.33 81.4706 132.843 81.9802 133.475 81.9802Z" fill="#165A82"/>
<path opacity="0.3" d="M105.541 81.9802C106.174 81.9802 106.686 81.4706 106.686 80.8419C106.686 80.2133 106.174 79.7037 105.541 79.7037C104.909 79.7037 104.396 80.2133 104.396 80.8419C104.396 81.4706 104.909 81.9802 105.541 81.9802Z" fill="#165A82"/>
</g>
<defs>
<clipPath id="clip0">
<rect width="246" height="133" fill="white"/>
</clipPath>
</defs>
</svg>
