<svg width="171" height="501" viewBox="0 0 171 501" fill="none" xmlns="http://www.w3.org/2000/svg">
<path d="M168.995 216L61 107.995L168.995 0L277 107.995L168.995 216Z" fill="url(#paint0_linear)"/>
<path d="M117.099 302.769L50.2522 235.922L117.099 169.083L183.938 235.922L117.099 302.769Z" fill="url(#paint1_linear)"/>
<path d="M115.653 420.569L20.7517 325.668L115.653 230.759L210.554 325.668L115.653 420.569Z" fill="url(#paint2_linear)"/>
<path d="M1 457.272L182.28 276" stroke="url(#paint3_linear)" stroke-miterlimit="10"/>
<path d="M7.858 457.272L189.13 276" stroke="url(#paint4_linear)" stroke-miterlimit="10"/>
<path d="M14.7083 457.272L195.988 276" stroke="url(#paint5_linear)" stroke-miterlimit="10"/>
<path d="M21.5663 457.272L202.847 276" stroke="url(#paint6_linear)" stroke-miterlimit="10"/>
<path d="M28.4245 457.272L209.705 276" stroke="url(#paint7_linear)" stroke-miterlimit="10"/>
<path d="M149.92 236.809L104.549 191.438L149.92 146.068L195.291 191.438L149.92 236.809Z" fill="url(#paint8_linear)"/>
<path d="M107.115 576.657L31.031 500.58L107.115 424.496L183.192 500.58L107.115 576.657Z" fill="url(#paint9_linear)"/>
<path d="M201.161 496.358L134.314 429.519L201.161 362.68L268 429.519L201.161 496.358Z" fill="url(#paint10_linear)"/>
<defs>
<linearGradient id="paint0_linear" x1="115" y1="53.9974" x2="222.999" y2="161.996" gradientUnits="userSpaceOnUse">
<stop stop-color="#277BFF"/>
<stop offset="0.3276" stop-color="#279DFF" stop-opacity="0.8362"/>
<stop offset="0.7711" stop-color="#27C6FF" stop-opacity="0.6144"/>
<stop offset="1" stop-color="#27D6FF" stop-opacity="0.5"/>
</linearGradient>
<linearGradient id="paint1_linear" x1="83.6765" y1="202.504" x2="150.518" y2="269.346" gradientUnits="userSpaceOnUse">
<stop stop-color="#FF8940"/>
<stop offset="1" stop-color="#FFCF40" stop-opacity="0.5"/>
</linearGradient>
<linearGradient id="paint2_linear" x1="68.2038" y1="278.214" x2="163.105" y2="373.115" gradientUnits="userSpaceOnUse">
<stop stop-color="#FF00FA"/>
<stop offset="1" stop-color="#8000FA" stop-opacity="0.5"/>
</linearGradient>
<linearGradient id="paint3_linear" x1="0.998679" y1="457.275" x2="182.277" y2="275.996" gradientUnits="userSpaceOnUse">
<stop stop-color="#FFC604"/>
<stop offset="1" stop-color="#FFF040" stop-opacity="0.7"/>
</linearGradient>
<linearGradient id="paint4_linear" x1="7.85528" y1="457.275" x2="189.134" y2="275.996" gradientUnits="userSpaceOnUse">
<stop stop-color="#FFC604"/>
<stop offset="1" stop-color="#FFF040" stop-opacity="0.7"/>
</linearGradient>
<linearGradient id="paint5_linear" x1="14.7118" y1="457.275" x2="195.991" y2="275.996" gradientUnits="userSpaceOnUse">
<stop stop-color="#FFC604"/>
<stop offset="1" stop-color="#FFF040" stop-opacity="0.7"/>
</linearGradient>
<linearGradient id="paint6_linear" x1="21.5685" y1="457.275" x2="202.847" y2="275.996" gradientUnits="userSpaceOnUse">
<stop stop-color="#FFC604"/>
<stop offset="1" stop-color="#FFF040" stop-opacity="0.7"/>
</linearGradient>
<linearGradient id="paint7_linear" x1="28.4252" y1="457.275" x2="209.704" y2="275.996" gradientUnits="userSpaceOnUse">
<stop stop-color="#FFC604"/>
<stop offset="1" stop-color="#FFF040" stop-opacity="0.7"/>
</linearGradient>
<linearGradient id="paint8_linear" x1="127.233" y1="168.753" x2="172.603" y2="214.123" gradientUnits="userSpaceOnUse">
<stop stop-color="#6D00FD"/>
<stop offset="1" stop-color="#277BFF" stop-opacity="0.5"/>
</linearGradient>
<linearGradient id="paint9_linear" x1="69.0733" y1="462.539" x2="145.152" y2="538.618" gradientUnits="userSpaceOnUse">
<stop stop-color="#277BFF"/>
<stop offset="0.2639" stop-color="#2796FF" stop-opacity="0.868"/>
<stop offset="0.7538" stop-color="#27C4FF" stop-opacity="0.6231"/>
<stop offset="1" stop-color="#27D6FF" stop-opacity="0.5"/>
</linearGradient>
<linearGradient id="paint10_linear" x1="167.738" y1="396.097" x2="234.579" y2="462.939" gradientUnits="userSpaceOnUse">
<stop stop-color="#FF8940"/>
<stop offset="1" stop-color="#FFCF40" stop-opacity="0.5"/>
</linearGradient>
</defs>
</svg>
