<svg width="287" height="489" viewBox="0 0 287 489" fill="none" xmlns="http://www.w3.org/2000/svg">
<path d="M-108.739 488.453L-280 317.192L-108.739 145.931L62.5216 317.192L-108.739 488.453Z" fill="url(#paint0_linear)"/>
<path d="M18.0261 223.57L-146.752 58.778L18.0261 -106L182.818 58.778L18.0261 223.57Z" fill="url(#paint1_linear)"/>
<path d="M157.5 154L28 24.4947L157.5 -105L287 24.4947L157.5 154Z" fill="url(#paint2_linear)"/>
<path d="M107.635 314.652L41.5437 248.547L107.635 182.456L173.739 248.547L107.635 314.652Z" fill="url(#paint3_linear)"/>
<path d="M-198.081 348.609L42.2313 108.157" stroke="url(#paint4_linear)" stroke-miterlimit="10"/>
<path d="M-185.509 348.609L54.7898 108.157" stroke="url(#paint5_linear)" stroke-miterlimit="10"/>
<path d="M-172.95 348.609L67.3484 108.157" stroke="url(#paint6_linear)" stroke-miterlimit="10"/>
<path d="M-160.391 348.609L79.9213 108.157" stroke="url(#paint7_linear)" stroke-miterlimit="10"/>
<path d="M-147.833 348.609L92.4798 108.157" stroke="url(#paint8_linear)" stroke-miterlimit="10"/>
<path d="M-135.274 348.609L105.039 108.157" stroke="url(#paint9_linear)" stroke-miterlimit="10"/>
<defs>
<linearGradient id="paint0_linear" x1="-194.37" y1="231.558" x2="-23.1091" y2="402.819" gradientUnits="userSpaceOnUse">
<stop offset="0.2368" stop-color="#1F197F" stop-opacity="0"/>
<stop offset="1" stop-color="#1F199A"/>
</linearGradient>
<linearGradient id="paint1_linear" x1="-64.3627" y1="-23.6094" x2="100.421" y2="141.174" gradientUnits="userSpaceOnUse">
<stop stop-color="#27D6FF" stop-opacity="0.5"/>
<stop offset="0.2289" stop-color="#27C6FF" stop-opacity="0.6144"/>
<stop offset="0.6724" stop-color="#279DFF" stop-opacity="0.8362"/>
<stop offset="1" stop-color="#277BFF"/>
</linearGradient>
<linearGradient id="paint2_linear" x1="92.754" y1="-40.2477" x2="222.249" y2="89.2528" gradientUnits="userSpaceOnUse">
<stop stop-color="#8000FA" stop-opacity="0.5"/>
<stop offset="1" stop-color="#FF00FA"/>
</linearGradient>
<linearGradient id="paint3_linear" x1="74.59" y1="215.499" x2="140.689" y2="281.597" gradientUnits="userSpaceOnUse">
<stop stop-color="#FFF040" stop-opacity="0.5"/>
<stop offset="1" stop-color="#FFC604"/>
</linearGradient>
<linearGradient id="paint4_linear" x1="-198.115" y1="348.575" x2="42.2707" y2="108.189" gradientUnits="userSpaceOnUse">
<stop stop-color="#6D00FD"/>
<stop offset="1" stop-color="#277BFF" stop-opacity="0.7"/>
</linearGradient>
<linearGradient id="paint5_linear" x1="-185.554" y1="348.575" x2="54.8317" y2="108.189" gradientUnits="userSpaceOnUse">
<stop stop-color="#6D00FD"/>
<stop offset="1" stop-color="#277BFF" stop-opacity="0.7"/>
</linearGradient>
<linearGradient id="paint6_linear" x1="-172.993" y1="348.575" x2="67.3927" y2="108.189" gradientUnits="userSpaceOnUse">
<stop stop-color="#6D00FD"/>
<stop offset="1" stop-color="#277BFF" stop-opacity="0.7"/>
</linearGradient>
<linearGradient id="paint7_linear" x1="-160.431" y1="348.575" x2="79.9541" y2="108.189" gradientUnits="userSpaceOnUse">
<stop stop-color="#6D00FD"/>
<stop offset="1" stop-color="#277BFF" stop-opacity="0.7"/>
</linearGradient>
<linearGradient id="paint8_linear" x1="-147.87" y1="348.575" x2="92.5152" y2="108.189" gradientUnits="userSpaceOnUse">
<stop stop-color="#6D00FD"/>
<stop offset="1" stop-color="#277BFF" stop-opacity="0.7"/>
</linearGradient>
<linearGradient id="paint9_linear" x1="-135.309" y1="348.575" x2="105.076" y2="108.189" gradientUnits="userSpaceOnUse">
<stop stop-color="#6D00FD"/>
<stop offset="1" stop-color="#277BFF" stop-opacity="0.7"/>
</linearGradient>
</defs>
</svg>
